<svg width="14" height="17" viewBox="0 0 14 17" fill="none" xmlns="http://www.w3.org/2000/svg">
<path d="M13.0731 5.52137C12.9801 5.59367 11.3483 6.51287 11.3483 8.55777C11.3483 10.9229 13.4242 11.7595 13.4862 11.7801C13.4759 11.8317 13.1557 12.9265 12.3914 14.0419C11.7098 15.0231 10.9971 16.0042 9.91266 16.0042C8.82826 16.0042 8.54936 15.3742 7.29966 15.3742C6.08096 15.3742 5.64716 16.0249 4.65566 16.0249C3.66416 16.0249 2.97216 15.116 2.17696 14.0006C1.25776 12.6889 0.51416 10.6543 0.51416 8.72297C0.51416 5.62457 2.52816 3.98237 4.51106 3.98237C5.56456 3.98237 6.44236 4.67437 7.10336 4.67437C7.73336 4.67437 8.71456 3.94107 9.91256 3.94107C10.3671 3.94117 11.999 3.98257 13.0731 5.52137ZM9.34466 2.62957C9.84036 2.04087 10.1916 1.22497 10.1916 0.409067C10.1916 0.295467 10.1813 0.181867 10.1606 0.0888672C9.35496 0.119867 8.39446 0.625968 7.81606 1.29727C7.36166 1.81367 6.93816 2.62957 6.93816 3.45587C6.93816 3.57977 6.95886 3.70377 6.96916 3.74507C7.02076 3.75537 7.10346 3.76577 7.18606 3.76577C7.90906 3.76567 8.81786 3.28027 9.34466 2.62957Z" fill="white"/>
</svg>
