<svg width="15" height="15" viewBox="0 0 15 15" fill="none" xmlns="http://www.w3.org/2000/svg">
<path d="M13.9489 13.3428L10.4489 9.84283C11.3306 8.763 11.7638 7.38571 11.6588 5.9956C11.5539 4.60548 10.9189 3.30881 9.88512 2.37357C8.85132 1.43833 7.49772 0.936 6.10408 0.970408C4.71044 1.00482 3.38328 1.57333 2.39689 2.55845C1.4105 3.54357 0.840282 4.87 0.804081 6.26359C0.767881 7.65719 1.26847 9.01143 2.20238 10.0464C3.13629 11.0814 4.43214 11.7181 5.82212 11.8248C7.2121 11.9315 8.58995 11.5001 9.67091 10.6198L13.1709 14.1198C13.222 14.1709 13.2826 14.2114 13.3494 14.2391C13.4161 14.2667 13.4877 14.281 13.5599 14.281C13.6322 14.281 13.7037 14.2667 13.7704 14.2391C13.8372 14.2114 13.8978 14.1709 13.9489 14.1198C14 14.0687 14.0405 14.0081 14.0682 13.9414C14.0958 13.8746 14.11 13.8031 14.11 13.7308C14.11 13.6586 14.0958 13.5871 14.0682 13.5203C14.0405 13.4536 14 13.3929 13.9489 13.3418V13.3428ZM1.92791 6.41783C1.92811 5.56366 2.18158 4.72872 2.65628 4.0186C3.13098 3.30847 3.80558 2.75505 4.59479 2.42831C5.38401 2.10157 6.25238 2.01618 7.09012 2.18294C7.92786 2.34971 8.69734 2.76113 9.30126 3.36519C9.90518 3.96926 10.3164 4.73883 10.483 5.57661C10.6496 6.41438 10.564 7.28274 10.2371 8.07187C9.91013 8.86101 9.35655 9.53549 8.64632 10.01C7.93608 10.4846 7.10109 10.7378 6.24691 10.7378C5.10159 10.7368 4.0035 10.2813 3.19373 9.4713C2.38397 8.66135 1.92871 7.56315 1.92791 6.41783Z" fill="white"/>
</svg>
